<svg xmlns="http://www.w3.org/2000/svg" width="1200" height="630" viewBox="0 0 1200 630" role="img" aria-label="TypingAI social preview image">
  <defs>
    <linearGradient id="bg" x1="0" y1="0" x2="1" y2="1">
      <stop offset="0%" stop-color="#040816" />
      <stop offset="45%" stop-color="#0c1c3a" />
      <stop offset="100%" stop-color="#0b2a2c" />
    </linearGradient>
    <radialGradient id="glowA" cx="0" cy="0" r="1" gradientUnits="userSpaceOnUse" gradientTransform="translate(220 90) rotate(34) scale(520 320)">
      <stop offset="0%" stop-color="#38bdf8" stop-opacity="0.55" />
      <stop offset="100%" stop-color="#38bdf8" stop-opacity="0" />
    </radialGradient>
    <radialGradient id="glowB" cx="0" cy="0" r="1" gradientUnits="userSpaceOnUse" gradientTransform="translate(1100 540) rotate(12) scale(440 300)">
      <stop offset="0%" stop-color="#34d399" stop-opacity="0.45" />
      <stop offset="100%" stop-color="#34d399" stop-opacity="0" />
    </radialGradient>
    <linearGradient id="line" x1="0" y1="0" x2="1" y2="0">
      <stop offset="0%" stop-color="#22d3ee" />
      <stop offset="50%" stop-color="#60a5fa" />
      <stop offset="100%" stop-color="#34d399" />
    </linearGradient>
    <linearGradient id="pill" x1="0" y1="0" x2="1" y2="1">
      <stop offset="0%" stop-color="#14314f" />
      <stop offset="100%" stop-color="#18373f" />
    </linearGradient>
  </defs>

  <rect width="1200" height="630" fill="url(#bg)" />
  <rect width="1200" height="630" fill="url(#glowA)" />
  <rect width="1200" height="630" fill="url(#glowB)" />

  <g opacity="0.12" stroke="#9ca3af" stroke-width="1">
    <path d="M0 560L1200 420" />
    <path d="M0 610L1200 470" />
    <path d="M0 510L1200 370" />
  </g>

  <rect x="74" y="88" width="1052" height="454" rx="34" fill="#0b1222" opacity="0.72" />
  <rect x="74" y="88" width="1052" height="454" rx="34" fill="none" stroke="#1f3b66" stroke-opacity="0.7" />

  <text x="132" y="214" fill="#e2e8f0" font-size="74" font-family="Segoe UI, Arial, sans-serif" font-weight="700">TypingAI</text>
  <text x="132" y="270" fill="#bfd2f8" font-size="31" font-family="Segoe UI, Arial, sans-serif" font-weight="500">Train faster. Type cleaner. Track real progress.</text>
  <rect x="132" y="303" width="470" height="10" rx="5" fill="url(#line)" />

  <g font-family="Segoe UI, Arial, sans-serif" font-size="21" font-weight="600" fill="#c8defd">
    <rect x="132" y="344" width="186" height="46" rx="15" fill="url(#pill)" stroke="#2a4e7d" />
    <text x="156" y="374">Practice</text>

    <rect x="336" y="344" width="170" height="46" rx="15" fill="url(#pill)" stroke="#2a4e7d" />
    <text x="361" y="374">Learn</text>

    <rect x="524" y="344" width="170" height="46" rx="15" fill="url(#pill)" stroke="#2a4e7d" />
    <text x="549" y="374">Battle</text>
  </g>

  <g transform="translate(760 162)">
    <rect x="0" y="0" width="312" height="230" rx="24" fill="#0f1f3b" stroke="#2a4e7d" />
    <g font-family="Segoe UI, Arial, sans-serif" font-weight="700" text-anchor="middle">
      <g>
        <rect x="22" y="24" width="56" height="52" rx="12" fill="#132b4b" stroke="#2c5888" />
        <text x="50" y="58" fill="#7dd3fc" font-size="20">A</text>

        <rect x="92" y="24" width="56" height="52" rx="12" fill="#132b4b" stroke="#2c5888" />
        <text x="120" y="58" fill="#60a5fa" font-size="20">S</text>

        <rect x="162" y="24" width="56" height="52" rx="12" fill="#132b4b" stroke="#2c5888" />
        <text x="190" y="58" fill="#34d399" font-size="20">D</text>

        <rect x="232" y="24" width="56" height="52" rx="12" fill="#132b4b" stroke="#2c5888" />
        <text x="260" y="58" fill="#38bdf8" font-size="20">F</text>
      </g>

      <g>
        <rect x="22" y="92" width="56" height="52" rx="12" fill="#132b4b" stroke="#2c5888" />
        <text x="50" y="126" fill="#22d3ee" font-size="20">J</text>

        <rect x="92" y="92" width="56" height="52" rx="12" fill="#132b4b" stroke="#2c5888" />
        <text x="120" y="126" fill="#86efac" font-size="20">K</text>

        <rect x="162" y="92" width="56" height="52" rx="12" fill="#132b4b" stroke="#2c5888" />
        <text x="190" y="126" fill="#93c5fd" font-size="20">L</text>

        <rect x="232" y="92" width="56" height="52" rx="12" fill="#132b4b" stroke="#2c5888" />
        <text x="260" y="126" fill="#99f6e4" font-size="20">;</text>
      </g>
    </g>

    <rect x="22" y="170" width="266" height="26" rx="11" fill="#0b1529" stroke="#244161" />
  </g>

  <text x="132" y="452" fill="#7dd3fc" font-size="23" font-family="Consolas, monospace" letter-spacing="1.3">AI typing coach for speed, accuracy, and focus</text>
</svg>
